<?xml version="1.0" standalone="no"?>
<!DOCTYPE svg PUBLIC "-//W3C//DTD SVG 20010904//EN"
 "http://www.w3.org/TR/2001/REC-SVG-20010904/DTD/svg10.dtd">
<svg version="1.0" xmlns="http://www.w3.org/2000/svg"
 width="1000.000000pt" height="1000.000000pt" viewBox="0 0 1000.000000 1000.000000"
 preserveAspectRatio="xMidYMid meet">
<metadata>
Created by potrace 1.14, written by Peter Selinger 2001-2017
</metadata>
<g transform="translate(0.000000,1000.000000) scale(0.100000,-0.100000)"
fill="#000000" stroke="none">
<path d="M3667 9464 c-1 -1 -54 -5 -117 -8 -404 -23 -775 -121 -1140 -301
-773 -381 -1268 -1056 -1346 -1835 -8 -79 -8 -286 0 -355 3 -27 9 -72 12 -100
3 -27 17 -102 31 -165 74 -338 230 -645 475 -939 l68 -81 -75 -130 c-146 -255
-331 -516 -446 -632 -22 -22 -60 -101 -65 -135 -2 -16 -5 -39 -7 -52 -10 -69
30 -177 86 -235 94 -96 170 -112 432 -92 151 12 384 46 450 66 17 5 41 11 55
14 224 39 640 190 985 357 60 29 76 33 115 27 25 -4 65 -9 90 -13 25 -3 52 -8
60 -10 17 -4 121 -15 202 -21 75 -5 385 -4 433 1 22 2 69 6 104 9 85 8 230 31
349 57 94 20 306 80 347 98 11 5 58 24 105 41 106 41 249 110 360 173 79 46
249 154 260 167 3 3 37 30 75 60 397 310 705 772 810 1216 46 193 59 304 59
494 0 119 -9 264 -19 292 -2 7 -6 32 -9 56 -32 251 -183 611 -362 862 -110
155 -265 323 -404 440 -36 30 -67 58 -70 61 -13 15 -222 159 -284 196 -121 71
-326 170 -451 218 -120 46 -360 118 -425 129 -19 3 -60 10 -90 16 -30 6 -71
13 -90 16 -19 3 -62 9 -95 14 -80 12 -459 31 -468 24z m363 -648 c19 -4 53 -9
75 -12 22 -3 54 -8 70 -10 113 -17 321 -73 445 -121 187 -71 453 -225 589
-340 98 -83 251 -245 302 -319 7 -12 33 -50 57 -85 120 -175 220 -446 239
-649 34 -368 -66 -701 -309 -1027 -226 -303 -553 -531 -973 -679 -99 -35 -336
-89 -435 -99 -30 -3 -68 -8 -85 -11 -16 -2 -113 -6 -215 -8 -185 -4 -350 9
-492 38 -96 19 -214 20 -294 1 -38 -8 -125 -43 -194 -76 -132 -64 -341 -155
-425 -184 -27 -9 -59 -21 -70 -26 -37 -15 -248 -79 -252 -76 -3 4 14 38 58
112 105 178 145 290 148 420 5 179 -47 309 -190 480 -154 184 -227 300 -297
470 -32 78 -77 244 -87 320 -4 28 -9 61 -11 75 -15 99 -1 298 32 440 63 273
224 550 450 772 210 206 456 360 740 463 88 32 221 72 267 80 12 3 42 9 67 14
47 11 85 17 160 26 25 4 74 10 110 14 70 9 462 6 520 -3z"/>
<path d="M6774 7754 c5 -18 22 -93 32 -139 11 -54 21 -129 29 -215 12 -114 14
-144 14 -207 l1 -63 30 0 c49 0 278 -39 380 -65 145 -36 291 -90 436 -161 126
-61 312 -177 383 -239 147 -127 198 -178 283 -284 150 -187 252 -384 304 -589
33 -131 34 -136 41 -298 10 -258 -40 -472 -169 -714 -42 -79 -127 -212 -147
-230 -3 -3 -31 -34 -61 -70 -30 -36 -65 -76 -78 -90 -38 -42 -99 -175 -118
-256 -23 -105 -15 -243 19 -342 14 -40 58 -132 99 -204 40 -73 74 -136 76
-140 2 -4 -30 2 -70 14 -184 52 -454 158 -658 258 -122 60 -186 84 -260 96
-59 9 -157 7 -213 -6 -25 -5 -69 -13 -99 -16 -29 -3 -56 -8 -59 -10 -26 -15
-372 -22 -534 -11 -290 20 -607 105 -850 229 -44 23 -93 48 -110 56 -53 27
-208 134 -280 193 -95 78 -182 164 -260 258 l-64 78 -71 -24 c-108 -36 -325
-90 -450 -112 -61 -10 -114 -22 -117 -25 -3 -3 0 -13 8 -22 15 -18 24 -32 56
-92 12 -22 28 -46 36 -53 7 -8 27 -34 44 -59 39 -57 170 -208 243 -279 316
-310 732 -548 1180 -674 69 -19 139 -38 155 -41 17 -4 41 -9 55 -11 80 -17
124 -25 167 -31 26 -3 50 -8 53 -9 17 -10 223 -20 415 -20 244 0 371 9 510 36
28 5 60 11 72 13 13 3 60 -14 114 -40 407 -198 852 -344 1219 -400 25 -3 53
-8 62 -9 9 -2 48 -7 85 -10 37 -4 79 -8 93 -11 51 -8 276 -5 308 5 133 41 222
162 222 304 0 95 -21 141 -116 257 -137 166 -291 383 -358 505 -9 17 -20 37
-26 45 -21 35 -77 136 -82 151 -4 10 3 26 17 41 255 275 460 675 529 1033 15
76 18 101 31 205 14 114 7 371 -15 500 -5 30 -12 70 -15 89 -37 222 -177 553
-325 771 -238 350 -618 672 -1015 860 -125 59 -169 77 -270 114 -262 94 -553
155 -824 172 -88 6 -93 6 -87 -12z"/>
<path d="M935 4158 c-3 -7 -28 -103 -56 -213 -44 -174 -69 -249 -69 -207 0 24
-72 90 -123 112 -63 28 -163 33 -227 12 -77 -25 -149 -89 -199 -177 -28 -49
-85 -195 -76 -195 2 0 0 -12 -5 -26 -18 -46 -23 -188 -10 -257 29 -156 144
-261 297 -271 54 -3 157 29 175 56 5 8 7 -7 5 -39 -2 -29 -2 -53 1 -53 2 0 56
-14 119 -31 64 -16 119 -27 123 -22 6 7 30 94 45 163 2 8 15 60 30 115 14 55
69 269 121 475 53 206 102 397 110 424 8 27 14 55 14 62 0 11 -24 24 -55 30
-5 1 -54 13 -108 28 -115 30 -106 29 -112 14z m-225 -545 c43 -25 63 -68 54
-111 -9 -45 -3 -21 -44 -186 -31 -123 -38 -140 -64 -159 -21 -15 -45 -21 -81
-21 -120 0 -160 95 -116 274 40 158 105 238 185 225 22 -3 51 -13 66 -22z"/>
<path d="M1214 3683 c2 -10 7 -61 11 -113 4 -52 8 -111 10 -130 2 -19 6 -80
10 -135 3 -55 8 -111 10 -125 2 -14 7 -70 10 -125 4 -55 8 -116 10 -135 19
-202 20 -195 -15 -244 -32 -44 -68 -66 -102 -60 -10 1 -35 5 -56 9 l-39 6 -23
-90 c-12 -50 -20 -97 -17 -104 3 -8 37 -24 76 -37 122 -39 229 -18 309 61 19
18 99 132 180 254 80 121 226 340 323 487 98 147 173 270 168 274 -12 7 -281
75 -285 72 -3 -4 -154 -256 -168 -283 -34 -61 -99 -165 -102 -162 -4 4 -12
248 -13 417 l-1 105 -127 33 c-71 18 -138 35 -150 38 -18 5 -22 2 -19 -13z"/>
<path d="M3127 3543 c-17 -63 -94 -363 -207 -807 -38 -153 -77 -303 -86 -333
-9 -30 -13 -57 -10 -60 4 -5 253 -73 267 -73 3 0 11 24 18 53 50 203 48 200
100 229 l48 26 54 -190 54 -190 150 -39 c83 -21 153 -37 157 -36 3 1 -36 133
-88 292 -51 160 -94 295 -94 302 0 11 316 244 370 273 12 7 18 16 14 20 -5 5
-78 27 -163 49 l-153 40 -151 -114 c-84 -62 -153 -113 -154 -112 -1 2 12 56
28 122 17 66 32 127 34 135 8 37 94 367 100 381 5 13 -2 20 -27 28 -33 10
-233 61 -241 61 -2 0 -11 -26 -20 -57z"/>
<path d="M2305 3385 c-131 -30 -210 -111 -222 -226 -7 -67 2 -108 37 -162 36
-53 108 -111 205 -162 89 -48 134 -81 144 -109 10 -25 -3 -64 -27 -82 -42 -32
-164 -1 -197 50 -9 14 -17 41 -18 61 -1 29 -5 37 -26 42 -15 3 -72 18 -128 33
-67 17 -104 23 -106 16 -2 -6 -3 -35 -1 -63 7 -133 106 -251 256 -307 84 -32
136 -41 228 -39 173 3 281 89 297 235 14 132 -66 227 -281 334 -75 37 -116 77
-116 113 0 28 31 70 53 72 7 1 23 3 37 4 32 4 80 -16 103 -42 10 -11 19 -38
20 -58 l2 -39 110 -29 c170 -45 165 -45 166 -8 1 17 2 37 3 44 1 6 -4 34 -10
60 -22 84 -94 162 -199 211 -115 55 -235 73 -330 51z"/>
<path d="M3975 2978 c-3 -7 -7 -24 -9 -38 -3 -14 -5 -25 -6 -25 -1 0 -3 -7 -5
-15 -2 -8 -17 -71 -35 -140 -17 -69 -33 -132 -35 -140 -2 -8 -18 -69 -35 -135
-64 -244 -34 -367 107 -442 102 -54 203 -60 294 -15 l56 27 -9 -44 c-4 -24 -7
-46 -5 -47 9 -9 242 -64 252 -60 7 2 17 28 24 58 6 29 13 60 15 68 37 143 189
738 190 745 1 7 -100 40 -185 60 -9 2 -33 8 -53 13 -35 10 -36 10 -45 -26 -39
-148 -93 -360 -96 -372 -3 -14 -25 -103 -46 -183 -34 -128 -264 -85 -246 46 3
18 37 156 76 309 39 152 71 282 71 290 0 8 -42 23 -123 43 -67 17 -128 31
-135 33 -6 2 -14 -2 -17 -10z"/>
<path d="M5021 2847 c-14 -56 -27 -105 -30 -109 -4 -4 -30 -1 -59 7 -40 10
-54 11 -57 2 -6 -17 -45 -174 -45 -180 0 -3 25 -11 55 -18 30 -7 55 -13 55
-15 0 -1 -18 -74 -41 -161 -71 -275 -86 -347 -83 -400 6 -133 122 -221 315
-239 l66 -6 17 68 c10 38 20 80 22 93 3 13 6 28 7 34 1 5 -11 11 -28 14 -45 6
-97 35 -105 58 -6 16 93 448 106 464 2 2 33 -4 70 -13 37 -9 70 -13 74 -9 5 4
18 46 29 92 25 96 27 93 -60 111 -33 7 -59 17 -59 22 0 5 11 55 25 110 14 55
24 102 21 105 -2 2 -57 18 -123 34 -65 16 -125 32 -133 34 -12 4 -20 -18 -39
-98z"/>
<path d="M6613 2650 c-92 -56 -81 -190 21 -239 111 -54 228 4 228 115 0 108
-151 184 -249 124z"/>
<path d="M5517 2538 c-8 -29 -27 -100 -42 -158 -15 -58 -45 -175 -67 -260 -50
-195 -54 -278 -16 -361 35 -77 107 -129 213 -154 75 -17 135 -10 205 24 24 12
45 21 46 21 1 0 -2 -17 -7 -37 -4 -21 -4 -42 0 -46 8 -8 216 -66 238 -67 15 0
17 8 122 420 50 195 97 379 104 408 8 29 11 54 8 56 -11 6 -75 25 -101 30 -14
3 -57 13 -97 24 -66 18 -73 18 -77 3 -3 -9 -37 -142 -76 -296 -39 -154 -75
-290 -80 -302 -15 -36 -66 -56 -123 -50 -61 8 -90 26 -107 68 -12 28 -10 44
15 148 16 64 30 121 31 126 1 6 23 90 49 189 25 98 44 184 42 190 -3 6 -58 25
-123 41 -66 17 -124 31 -131 33 -6 2 -18 -20 -26 -50z"/>
<path d="M6480 2203 c-17 -71 -33 -135 -35 -143 -2 -8 -19 -76 -38 -150 -20
-74 -59 -225 -87 -335 -60 -234 -70 -250 -148 -248 -26 1 -61 9 -77 17 -16 8
-30 14 -32 12 -5 -4 -53 -189 -53 -202 0 -15 100 -51 174 -62 160 -25 280 35
340 168 15 32 38 105 52 162 14 56 29 114 34 128 5 14 11 36 14 50 2 14 14 63
26 110 12 47 23 92 25 100 2 8 27 105 56 215 28 110 53 209 56 220 4 18 -9 23
-124 53 -71 17 -134 32 -140 32 -6 0 -25 -57 -43 -127z"/>
<path d="M7142 2140 c-196 -42 -355 -295 -338 -538 15 -203 157 -356 376 -404
117 -26 260 -6 337 46 l33 23 -45 91 -44 92 -37 -22 c-26 -15 -57 -23 -101
-24 -126 -5 -211 51 -234 151 -7 31 -10 58 -7 60 3 3 68 -10 144 -30 174 -45
364 -95 385 -101 26 -7 64 156 63 272 -1 81 -5 100 -32 159 -48 101 -121 165
-237 205 -68 24 -199 34 -263 20z m214 -238 c35 -19 57 -62 57 -114 0 -26 -3
-51 -6 -55 -6 -5 -105 14 -172 34 -5 1 -31 8 -57 14 -53 14 -56 18 -31 57 45
69 84 92 145 82 24 -3 52 -11 64 -18z"/>
<path d="M9468 1938 c-3 -13 -44 -176 -92 -363 -187 -727 -224 -875 -217 -879
15 -9 218 -59 245 -60 19 -1 30 4 31 14 3 18 178 704 207 810 11 41 21 82 23
90 2 8 21 87 44 175 22 88 39 161 37 162 -2 2 -265 72 -272 73 -1 0 -4 -10 -6
-22z"/>
<path d="M8411 1836 c4 -4 0 -28 -7 -54 -8 -26 -66 -249 -129 -497 -63 -247
-128 -501 -144 -563 -20 -79 -25 -115 -17 -118 20 -7 246 -64 256 -64 8 0 25
48 35 100 2 8 19 77 39 154 20 76 36 140 36 142 0 1 24 -21 54 -51 61 -61 129
-88 224 -86 62 0 155 40 204 85 103 97 176 281 184 461 7 181 -52 297 -184
362 -76 37 -194 40 -258 6 l-41 -21 4 41 5 42 -114 28 c-62 16 -122 31 -133
34 -11 3 -17 2 -14 -1z m408 -324 c50 -37 60 -137 25 -265 -37 -136 -96 -212
-162 -210 -73 2 -141 53 -142 107 0 48 82 350 101 370 35 38 126 37 178 -2z"/>
<path d="M7780 1303 c-68 -35 -96 -142 -53 -202 25 -35 99 -71 143 -71 44 0
98 27 124 63 23 32 27 107 8 144 -37 68 -152 103 -222 66z"/>
</g>
</svg>
